<svg viewBox="0 0 199.89 18.72"
  xmlns="http://www.w3.org/2000/svg">
  <path d="M4.24 18.45H0V.26h6.84c1.78 0 3.4 0 4.91 1a5.35 5.35 0 012.36 4.54 5.94 5.94 0 01-2 4.61c-1.56 1.3-3.23 1.27-5.16 1.27H4.24zm2.39-10a3.08 3.08 0 002.6-.8A2.4 2.4 0 009.81 6a2.45 2.45 0 00-.87-1.92 3.79 3.79 0 00-2.34-.5H4.24v4.83zM49.13 3.87h-4.56v14.58h-4.24V3.87h-4.61V.26h13.41zM65.26 18.45H61V.26h6.85c1.77 0 3.39 0 4.9 1a5.35 5.35 0 012.36 4.54 6 6 0 01-2 4.61c-1.56 1.3-3.24 1.27-5.17 1.27h-2.68zm2.38-10a3.08 3.08 0 002.6-.8A2.4 2.4 0 0070.82 6 2.42 2.42 0 0070 4.08a3.79 3.79 0 00-2.34-.5h-2.4v4.83zM99.17 18.45h-4.24V.26h7.67a8.24 8.24 0 014.66.94 5.4 5.4 0 012.31 4.53 4.9 4.9 0 01-3.16 4.69l3.37 8h-4.72l-2.78-7.18h-3.11zm0-10.31h2.34a5.09 5.09 0 002.6-.37 2.44 2.44 0 001.06-2.07 2.25 2.25 0 00-1-1.85 5.49 5.49 0 00-2.73-.35h-2.27zM126.34 3.87h-4.56v14.58h-4.25V3.87h-4.61V.26h13.42zM154.27 3.79v3.69h6.89v3.42h-6.89v4H163v3.52h-13V.26h13v3.53zM171.54 18.45h-4.25V.26H175a8.23 8.23 0 014.66.94 5.4 5.4 0 012.31 4.53 4.91 4.91 0 01-3.15 4.69l3.37 8h-4.72l-2.79-7.18h-3.1zm0-10.31h2.33a5.07 5.07 0 002.6-.37 2.44 2.44 0 001.06-2.07 2.23 2.23 0 00-1-1.85 5.46 5.46 0 00-2.72-.35h-2.23zM195.79 5.46a2.92 2.92 0 00-3.14-2.15c-1.13 0-2.51.3-2.51 1.7s1.59 1.65 2.62 1.83a14.72 14.72 0 014.75 1.54 5.06 5.06 0 012.38 4.3 5.77 5.77 0 01-2.25 4.55 8.54 8.54 0 01-5.28 1.49c-3.42 0-6.52-1.49-7.34-5l3.92-.9c.53 1.91 1.91 2.57 3.79 2.57 1.22 0 2.84-.45 2.84-2s-2.07-1.8-3.18-2c-3.23-.66-6.42-1.62-6.42-5.6a5.44 5.44 0 012-4.27A6.84 6.84 0 01192.5 0c3.18 0 5.78 1.11 6.89 4.27zM17.89.39h5.54c5.52 0 9.68 2.34 9.68 8.93 0 6.79-4.23 9.13-9.68 9.13h-5.54zm5.81 14.84c3.94 0 5.43-1.76 5.43-5.86 0-3.86-1.52-5.67-5.47-5.67h-1.81v11.53zM81.59.31h3.78l6.4 18.14h-4l-1.34-4h-6.19l-1.39 4h-3.66zm3.88 11.23L83.4 5.39h-.05l-2.13 6.15zM130.15.39h4l7.57 11.52h.05V.39h3.66v18.06h-3.66l-7.91-11.62h-.05v11.62h-3.66z" fill="#365674"/>
</svg>