<svg class="Navigation_logo__icon__vemxV" viewBox="0 0 1135.53 207.8" xmlns="http://www.w3.org/2000/svg"><path fill="currentColor" d="M419.4 100.5l54.8 146h-30.3l-11.6-31.3H372l-11.6 31.4h-29.7l54.5-146zm-38 89.3h41.3L402 133.7zM611.6 246.6h-26l-68.3-100.7v100.7h-28.7v-146h30.3l64.1 95.7v-95.8h28.7zM637.2 100.5h50.3c46 0 74 28.5 74 73s-28 73-74 73h-50.3zM687.5 221c28.2 0 44.5-18.7 44.5-47.3 0-29-16.3-47.4-44.7-47.4h-20.8v94.7zM777.8 188.2v-87.6h30v86.6c0 24.6 12 35.2 30.2 35.2 18.3 0 30.3-10.6 30.3-35.2v-86.6h29.9v87.6c0 40.3-24.3 60.4-60.3 60.4s-60.1-20.1-60.1-60.4zM951.4 246.6h-29.9v-146h59.8c33.6 0 54.5 15.8 54.5 46 0 22.1-12 37-32.5 42.9l36.4 57.1h-34.2l-33.7-54.3h-20.4zm28.3-79.3c17.5 0 26.4-7.6 26.4-20.6 0-13.2-9-20.7-26.4-20.7h-28.3v41.3zM1085.6 246.6h-29.9v-146h30zM1111 100.5h30v120.2h67.1v25.9h-97zM294.3 205c-2.9-1.4-5.7-3-8.5-4.6a145.3 145.3 0 01-25.8-19.3c-2.7-2.5-5.4-5.1-7.9-7.9A145.2 145.2 0 01214 83.6l-.3-8.7v-.8a1.5 1.5 0 00-1.5-1.6h-57.6a1.5 1.5 0 00-1.5 1.6v.8l-.3 8.7a145.4 145.4 0 01-37.3 88.7c-2.5 2.8-5.2 5.5-7.9 8A147 147 0 0181.8 200a146 146 0 01-8.5 4.6 1.5 1.5 0 00-.7 2c1.3 3 2.6 5.8 4 8.4a120.3 120.3 0 0018.9 26.8c2.2 2.4 4.6 4.7 7 7a120.5 120.5 0 00162.5.3c2.5-2.3 4.8-4.6 7-6.9a120.5 120.5 0 0019-26.7 102 102 0 004-8.5 1.5 1.5 0 00-.7-2zm-173.5 39.1a1.5 1.5 0 01-2.4 1.3q-2.7-2-5.2-4.2c-2.6-2.2-4.8-4.4-6.9-6.5a108 108 0 01-17.1-23.3 1.5 1.5 0 01.5-2 158.8 158.8 0 0023.4-17.4c2.6-2.3 5.2-4.8 7.6-7.3a156 156 0 0040-72 1.5 1.5 0 013 0 196.4 196.4 0 0012.7 41 1.5 1.5 0 010 1.3 186.5 186.5 0 01-39.4 54.5 85.3 85.3 0 00-7 7 38.6 38.6 0 00-8.7 18.5 37.4 37.4 0 00-.6 6.7v2.4zm97.3-29a1.5 1.5 0 01-.3 2.4 67 67 0 01-33.6 9.3h-.3a66.7 66.7 0 01-34.6-9.7 1.5 1.5 0 01-.3-2.3c3-3 6-6.2 8.7-9.4a199.1 199.1 0 0024.4-34.7 1.5 1.5 0 012.6 0 199.2 199.2 0 0033.4 44.5zm-80.4 11.4a1.5 1.5 0 012.1-.4 79.2 79.2 0 0044.1 13.4l3.6-.1a76.4 76.4 0 009.4-1 79.8 79.8 0 0031.3-12.4 1.5 1.5 0 011.8.1 199.2 199.2 0 0020.9 15.6 1.5 1.5 0 010 2.5 107.8 107.8 0 01-66 23.4h-.9a113 113 0 01-14.7-1 106.3 106.3 0 01-30.7-9 1.5 1.5 0 01-.6-.5 26.5 26.5 0 01-.2-30.6zm99.8-10l-7.2-6.5a186.6 186.6 0 01-40.5-56.3 166 166 0 01-5-11.8 184.8 184.8 0 01-12-55 1.5 1.5 0 011.5-1.7h26a1.5 1.5 0 011.6 1.4l.8 8.5a158 158 0 0044.2 90.4c2.4 2.5 5 4.9 7.6 7.2a157.1 157.1 0 0023.4 17.2 1.5 1.5 0 01.5 2 107.5 107.5 0 01-15.6 21.4 1.5 1.5 0 01-1.9.3 187.1 187.1 0 01-23.4-17.1z" transform="translate(-72.5 -72.5)"></path></svg>
