<svg xmlns="http://www.w3.org/2000/svg" width="118" height="20" viewBox="0 0 118 20" fill="none">
  <g clip-path="url(#clip0_167_3030)">
    <path d="M54.0753 4.25662C53.2828 3.88681 52.3885 3.7019 51.3885 3.7019C50.0036 3.7019 48.83 4.07926 47.8639 4.83398C46.8979 5.5887 46.3206 6.56606 46.1394 7.76606L47.6904 8.06039C47.8073 7.15851 48.196 6.44153 48.8526 5.917C49.5092 5.39247 50.3583 5.12832 51.3923 5.12832C52.4262 5.12832 53.3243 5.40379 53.9923 5.95473C54.6602 6.50568 54.9922 7.24907 54.9922 8.18492V8.55096L51.3923 8.95096C49.5243 9.14719 48.1319 9.55851 47.2149 10.1811C46.2979 10.8038 45.8413 11.7095 45.8413 12.8906C45.8413 13.6151 46.03 14.2453 46.4036 14.7887C46.7772 15.3321 47.3055 15.7547 47.9772 16.0566C48.6526 16.3585 49.4224 16.5132 50.2904 16.5132C51.4073 16.5132 52.4111 16.2642 53.3017 15.7623C54.0866 15.3208 54.6489 14.7472 54.9885 14.0453V16.317H56.5621V8.13964C56.5621 7.26794 56.347 6.49813 55.913 5.82266C55.479 5.15096 54.8677 4.62643 54.0753 4.25662ZM54.4375 13.0151C54.0715 13.6906 53.5394 14.2 52.8489 14.5547C52.1583 14.9095 51.3356 15.083 50.3847 15.083C49.5356 15.083 48.8375 14.883 48.2979 14.4793C47.7545 14.0755 47.4866 13.5472 47.4866 12.8906C47.4866 12.1019 47.8224 11.5095 48.4979 11.117C49.1734 10.7245 50.1432 10.4528 51.4111 10.3057L54.9885 9.88304V10.5736C54.9885 11.5245 54.8036 12.3396 54.4375 13.0113V13.0151Z" fill="#1C1917"/>
    <path d="M70.6528 4.84907C69.7924 4.08681 68.6641 3.7019 67.2641 3.7019C66.2981 3.7019 65.4302 3.94341 64.6641 4.43021C63.8981 4.91322 63.2717 5.64153 62.7887 6.61134V3.9019H61.2151V16.317H62.7887V11.0189C62.7887 9.83775 62.9623 8.80002 63.3132 7.91322C63.6641 7.02643 64.1585 6.33964 64.8 5.85662C65.4415 5.3736 66.1887 5.12832 67.0377 5.12832C68.0717 5.12832 68.883 5.39624 69.4755 5.92832C70.0679 6.46039 70.3811 7.21511 70.4113 8.18115L71.9849 7.90945C71.9509 6.63021 71.5057 5.60756 70.6491 4.84153L70.6528 4.84907Z" fill="#1C1917"/>
    <path d="M84.6566 4.2453C83.9811 3.88304 83.2188 3.7019 82.3698 3.7019C81.4038 3.7019 80.5321 3.95096 79.7585 4.45285C78.9849 4.95473 78.3547 5.63021 77.8717 6.48681V3.9019H76.2981V16.317H77.8717V10.8717C77.8717 9.70568 78.049 8.69058 78.4075 7.83021C78.766 6.96983 79.2641 6.3019 79.9094 5.83398C80.5509 5.36606 81.2981 5.13209 82.1472 5.13209C83.0981 5.13209 83.8528 5.41889 84.4113 5.99624C84.9698 6.56983 85.249 7.317 85.249 8.23775V16.317H86.8226V8.03775C86.8226 7.18492 86.6302 6.43021 86.249 5.76983C85.8641 5.11322 85.3358 4.60379 84.6604 4.24153L84.6566 4.2453Z" fill="#1C1917"/>
    <path d="M97.3698 3.89819H97.0453H95.7962H91.0453V5.32838H95.7962V14.8869H90.6453V16.3171H95.7962H97.3698H102.498V14.8869H97.3698V3.89819Z" fill="#1C1917"/>
    <path d="M117.675 16.3171L112.498 9.85668L117.249 3.89819H115.324L111.524 8.64159L107.721 3.89819H105.774L110.547 9.85668L105.374 16.3171H107.347L111.524 11.0793L115.724 16.3171H117.675Z" fill="#1C1917"/>
    <path d="M41.732 9.50946H41.6867V9.36984H35.1584V10.751H40.3056C40.015 13.4189 38.1697 15.2227 35.615 15.2227C32.3471 15.2227 30.8829 12.6 30.8829 10C30.8829 6.39248 33.2603 4.77738 35.615 4.77738C37.7093 4.77738 39.2489 5.81889 39.9546 7.70946L41.2716 7.23399C40.3622 4.79625 38.298 3.40002 35.615 3.40002C32.0037 3.40002 29.4829 6.11701 29.4829 10.0038C29.4829 13.8906 32.0037 16.6076 35.615 16.6076C39.2263 16.6076 41.7471 13.8302 41.7471 10.0038C41.7471 9.90568 41.7433 9.80757 41.7395 9.71323C41.7395 9.64531 41.7357 9.58116 41.732 9.51323V9.50946Z" fill="#1C1917"/>
    <path d="M19.7169 0.56604H0.565918V19.434H19.7169V0.56604Z" fill="#F2F2F2"/>
    <path d="M0 0V20H20.283V0H0ZM1.13208 18.8679V1.13208H19.1509V9.43396H9.57736V14.5887H10.7094V10.566H19.1509V18.8679H1.13208Z" fill="#221D28"/>
  </g>
  <defs>
    <clipPath id="clip0_167_3030">
      <rect width="117.675" height="20" fill="white"/>
    </clipPath>
  </defs>
<iframe xmlns="http://www.w3.org/1999/xhtml" class="cleanslate hidden" src="moz-extension://4b7ce792-735a-42fe-85f7-3b5166ace96f/static/commandline.html" id="cmdline_iframe" loading="lazy" style="height: 0px !important;"></iframe><script xmlns="" id="bw-fido2-page-script"/></svg>
