<svg version="1.1" id="Layer_1" xmlns="http://www.w3.org/2000/svg" xmlns:xlink="http://www.w3.org/1999/xlink" x="0px" y="0px" width="566.9px" height="285px" viewBox="0 0 566.9 285" class="w-[87px] h-[44px] md:w-[123px] md:h-[62px] duration-500" xml:space="preserve"><g><path class="st0" d="M171.8,0h-18.3c-4,0-7.3,3.3-7.3,7.3v79H62v-6.6c0-39.6,18.7-47.8,44-48h2.9c4,0,7.3-3.3,7.3-7.3V7.3 c0-4-3.3-7.3-7.3-7.3H106v0C62.2,0.1,29.2,22.8,29.2,79.7v6.6H7.3c-4,0-7.3,3.3-7.3,7.3v17.1c0,4,3.3,7.3,7.3,7.3h21.9V274 c0,4,3.3,7.3,7.3,7.3h18.3c4,0,7.3-3.3,7.3-7.3V117.9h84.2V274c0,4,3.3,7.3,7.3,7.3h18.3c4,0,7.3-3.3,7.3-7.3V7.3 C179,3.3,175.8,0,171.8,0z M554.4,86.7h-18.6c-2.3,0-4.5,1.1-5.9,3l-30.3,41.7l8,11.1l9.6,13.2l0.1-0.1l0.8,1.1l42.2-58.5 C563.8,93.4,560.3,86.7,554.4,86.7z M304.2,82.5c-57.1,0-102.3,46-102.3,101.4c0,55.4,46,101,102.3,101 c56.7,0,102.7-45.6,102.7-101C406.9,128.5,361.3,82.5,304.2,82.5z M304.2,254.6c-39.4,0-70.6-33.3-70.6-70.6 c0-37,30.4-71.1,70.6-71.1s71,34.1,71,71.1C375.3,221.3,344.1,254.6,304.2,254.6z" fill="#ffb990"></path><path class="st1" fill="#ffceac" d="M565.5,270.2l-47.4-64.9l-9.5,13.3l-9,12.2l35.2,48c1.4,1.9,3.6,3,5.9,3h18.9C565.6,281.8,569,275,565.5,270.2 z M500.2,180.8l-66.4-91.1c-1.4-1.9-3.6-3-5.9-3h-18.6c-5.9,0-9.4,6.7-5.9,11.5l59.8,82.9l-65.1,89c-3.5,4.8-0.1,11.6,5.9,11.6H423 c2.3,0,4.5-1.1,5.9-3L500.2,180.8L500.2,180.8z"></path></g></svg>
